<svg xmlns="http://www.w3.org/2000/svg" xmlns:xlink="http://www.w3.org/1999/xlink" width="87" height="32" viewBox="0 0 87 32" fill="none">
<rect  x="0" y="0" width="87" height="32" rx="16"    fill="#FFFFFF" fill-opacity="0">
</rect>
<path fill-rule="evenodd"  fill="rgba(151, 151, 151, 0.2)"  d="M71 0L16 0C7.16344 0 0 7.16344 0 16C0 24.8366 7.16344 32 16 32L71 32C79.8366 32 87 24.8366 87 16C87 7.16344 79.8366 0 71 0ZM5.03984 5.03985Q9.57969 0.500004 16 0.500001L71 0.5C79.5604 0.5 86.5 7.43959 86.5 16C86.5 24.5604 79.5604 31.5 71 31.5L16 31.5C7.43959 31.5 0.5 24.5604 0.5 16Q0.5 9.5797 5.03984 5.03985Z">
</path>
<path d="M73.6666 15.5902C73.6666 11.1396 69.8603 7.33325 65.4097 7.33325C60.4729 7.33325 56.6666 11.1396 56.6666 15.5902C56.6666 20.527 60.4729 24.3333 65.4097 24.3333C69.8603 24.3333 73.6666 20.527 73.6666 15.5902ZM71.6666 16.0738C71.6666 12.244 68.7559 9.33325 65.4071 9.33325C61.5773 9.33325 58.6666 12.244 58.6666 16.0738C58.6666 19.4226 61.5773 22.3333 65.4071 22.3333C68.7559 22.3333 71.6666 19.4226 71.6666 16.0738ZM62.1666 15.8333C62.1666 14.1761 63.51 12.8333 65.1666 12.8333C66.8232 12.8333 68.1666 14.1761 68.1666 15.8333C68.1666 17.4899 66.8232 18.8333 65.1666 18.8333C63.51 18.8333 62.1666 17.4899 62.1666 15.8333Z" fill-rule="evenodd"  fill="#000000" >
</path>
<rect x="43.5" y="6.5" width="0.5" height="18.5"   fill="#000000" fill-opacity="0.2">
</rect>
<path d="M22.75 19.5C24.5449 19.5 26 18.0449 26 16.25C26 14.4551 24.5449 13 22.75 13C20.9551 13 19.5 14.4551 19.5 16.25C19.5 18.0449 20.9551 19.5 22.75 19.5ZM15.5 14.5C14.3956 14.5 13.5 15.3952 13.5 16.5C13.5 17.6044 14.3956 18.5 15.5 18.5C16.6044 18.5 17.5 17.6044 17.5 16.5C17.5 15.3952 16.6044 14.5 15.5 14.5ZM30 14.5C28.8956 14.5 28 15.3952 28 16.5C28 17.6044 28.8956 18.5 30 18.5C31.1044 18.5 32 17.6044 32 16.5C32 15.3952 31.1044 14.5 30 14.5Z" fill-rule="evenodd"  fill="#000000" >
</path>
</svg>
