<svg xmlns="http://www.w3.org/2000/svg" xmlns:xlink="http://www.w3.org/1999/xlink" width="340" height="19" viewBox="0 0 340 19" fill="none">
<g opacity="0.35">
<path fill-rule="evenodd"  fill="rgba(0, 0, 0, 1)"  d="M334.667 3.33325L318 3.33325C316.527 3.33325 315.333 4.52716 315.333 5.99992L315.333 11.9999C315.333 13.4727 316.527 14.6666 318 14.6666L334.667 14.6666C336.139 14.6666 337.333 13.4727 337.333 11.9999L337.333 5.99992C337.333 4.52716 336.139 3.33325 334.667 3.33325ZM316.333 5.99992C316.333 5.07944 317.079 4.33325 318 4.33325L334.667 4.33325C335.587 4.33325 336.333 5.07944 336.333 5.99992L336.333 11.9999C336.333 12.9204 335.587 13.6666 334.667 13.6666L318 13.6666C317.079 13.6666 316.333 12.9204 316.333 11.9999L316.333 5.99992Z">
</path>
</g>
<g opacity="0.4">
<path d="M338.333 7L338.333 11C339.138 10.6612 339.661 9.8732 339.661 9C339.661 8.1268 339.138 7.3388 338.333 7Z"   fill="#000000" >
</path>
</g>
<rect  x="317.333251953125" y="5.333251953125" width="17.99999999999999" height="7.333333333333332" rx="1.333333373069763"    fill="#000000" >
</rect>
<path d="M296.69 8.00067C298.303 6.46903 300.442 5.61494 302.667 5.61494C304.892 5.61494 307.032 6.46903 308.644 8.00067C308.765 8.11915 308.959 8.11772 309.079 7.99734L310.24 6.82732C310.3 6.76641 310.333 6.68362 310.333 6.59797C310.333 6.51185 310.298 6.43001 310.237 6.36958C306.005 2.31756 299.329 2.31756 295.097 6.36958C295.035 6.43001 295 6.51185 295 6.59797C295 6.68362 295.034 6.76641 295.094 6.82732L296.254 7.99734C296.374 8.11772 296.569 8.11915 296.69 8.00067ZM307.564 9.06007C304.805 6.49554 300.532 6.49554 297.773 9.06007C297.71 9.12022 297.675 9.20297 297.674 9.28937C297.673 9.37576 297.707 9.45924 297.768 9.52049L298.928 10.691C299.046 10.8102 299.24 10.8128 299.362 10.6965C300.268 9.87737 301.446 9.42352 302.667 9.42279C303.89 9.42279 305.069 9.87664 305.975 10.6965C306.096 10.8128 306.29 10.8102 306.409 10.691L307.569 9.52049C307.63 9.45924 307.664 9.37576 307.663 9.28937C307.662 9.20261 307.626 9.12022 307.564 9.06007ZM304.886 11.7575C304.95 11.8157 304.987 11.898 304.989 11.9846C304.991 12.0713 304.957 12.1552 304.895 12.2158L302.889 14.238C302.831 14.2973 302.751 14.3308 302.667 14.3308C302.583 14.3308 302.503 14.2973 302.444 14.238L300.439 12.2158C300.377 12.1552 300.343 12.0713 300.345 11.9846C300.346 11.898 300.384 11.8157 300.449 11.7575C301.729 10.6753 303.605 10.6753 304.886 11.7575Z" fill-rule="evenodd"  fill="#000000" >
</path>
<path d="M287 4.66728L287 13.3339C287 13.8854 287.448 14.3334 288 14.3334L289 14.3334C289.552 14.3334 290 13.8854 290 13.3339L290 4.66621C290 4.11475 289.552 3.66675 289 3.66675L288 3.66675C287.448 3.66675 287 4.11475 287 4.66728ZM282.333 7.00005L282.333 13.3334C282.333 13.8859 282.781 14.3334 283.333 14.3334L284.333 14.3334C284.886 14.3334 285.333 13.8859 285.333 13.3334L285.333 7.00005C285.333 6.44755 284.886 6.00005 284.333 6.00005L283.333 6.00005C282.781 6.00005 282.333 6.44755 282.333 7.00005ZM277.667 13.333C277.667 13.8856 278.114 14.3332 278.667 14.3332L279.667 14.3332C280.219 14.3332 280.667 13.8856 280.667 13.333L280.667 9.33345C280.667 8.78085 280.219 8.33325 279.667 8.33325L278.667 8.33325C278.114 8.33325 277.667 8.78085 277.667 9.33345L277.667 13.333ZM273 11.3332L273 13.3332C273 13.8856 273.448 14.3332 274 14.3332L275 14.3332C275.552 14.3332 276 13.8856 276 13.3332L276 11.3332C276 10.7808 275.552 10.3332 275 10.3332L274 10.3332C273.448 10.3332 273 10.7808 273 11.3332Z" fill-rule="evenodd"  fill="#000000" >
</path>
<g >
<text transform="translate(0, 0.330078125)">
<tspan x="11.91" y="15.899999999999999" font-size="15" line-height="0"  fill="#000000"  font-family="" letter-spacing="-0.3" >
9:41</tspan>
</text>
</g>
</svg>
